

Cover:
 
http://ia.media-imdb.com/images/M/MV5BNTY3NTY3ODAzOF5BMl5BanBnXkFtZTcwMTI4MDQyOA@@._V1._SY317_.jpg

Release info:

General
Format                                   : Matroska
Format version                           : Version 2
File size                                : 687 MiB
Duration                                 : 1h 40mn
Overall bit rate                         : 953 Kbps


Video
ID                                       : 1
Format                                   : MPEG-4 Visual
Format profile                           : Advanced Simple@L5
Format settings, BVOP                    : Yes
Format settings, QPel                    : No
Format settings, GMC                     : No warppoints
Format settings, Matrix                  : Default (H.263)
Codec ID                                 : V_MS/VFW/FOURCC / XVID
Codec ID/Hint                            : XviD
Duration                                 : 1h 40mn
Bit rate                                 : 807 Kbps
Width                                    : 624 pixels
Height                                   : 352 pixels
Display aspect ratio                     : 16:9
Frame rate mode                          : Constant
Frame rate                               : 23.976 fps
Color space                              : YUV
Chroma subsampling                       : 4:2:0
Bit depth                                : 8 bits
Scan type                                : Progressive
Compression mode                         : Lossy
Bits/(Pixel*Frame)                       : 0.153
Stream size                              : 581 MiB (85%)
Writing library                          : XviD 57
Language                                 : English
Default                                  : Yes
Forced                                   : No

Audio
ID                                       : 2
Format                                   : MPEG Audio
Format version                           : Version 1
Format profile                           : Layer 3
Mode                                     : Joint stereo
Muxing mode                              : Header stripping
Codec ID                                 : A_MPEG/L3
Codec ID/Hint                            : MP3
Duration                                 : 1h 40mn
Bit rate mode                            : Constant
Bit rate                                 : 128 Kbps
Channel(s)                               : 2 channels
Sampling rate                            : 44.1 KHz
Compression mode                         : Lossy
Stream size                              : 92.2 MiB (13%)
Writing library                          : LAME3.98.2
Language                                 : English
Default                                  : Yes
Forced                                   : No

Source:
credit to original movie ripper SAPHiRE (Thanks)

IMDB Info:

The night before their high school reunion, a group of friends realize they still haven't quite grown up in some ways.

Director: Jamie Linden
Writer: Jamie Linden
Stars: Channing Tatum, Rosario Dawson and Chris Pratt 
Genres: Comedy | Drama | Romance

 
http://www.imdb.com/title/tt1715873/

Screen Shot:
 
http://www.shotpix.com/images/59837083489177636433.png 
http://www.shotpix.com/images/58118839470697994830.png 
http://www.shotpix.com/images/97563562789650023513.png 
http://www.shotpix.com/images/83699215247103609650.png 
http://www.shotpix.com/images/56426006239667890165.png 
http://www.shotpix.com/images/29234447206634768684.png 
http://www.shotpix.com/images/76883377966393648005.png 
http://www.shotpix.com/images/47853601908772940297.png